<?xml version="1.0" encoding="UTF-8"?>
<svg xmlns="http://www.w3.org/2000/svg" id="Capa_1" data-name="Capa 1" viewBox="0 0 566 158.23">
  <defs>
    <style>
      .cls-1 {
        fill-rule: evenodd;
      }

      .cls-1, .cls-2 {
        fill: #1d1d1b;
      }

      .cls-3 {
        fill: #00609c;
      }

      .cls-3, .cls-4 {
        stroke: #fff;
        stroke-miterlimit: 10;
        stroke-width: .25px;
      }

      .cls-4 {
        fill: #010000;
      }
    </style>
  </defs>
  <path class="cls-1" d="m77.87,138.17c-32.23,0-58.37-26.13-58.37-58.37s26.14-58.37,58.37-58.37,58.38,26.14,58.38,58.37-26.14,58.37-58.38,58.37m-.02-126.55C40.21,11.61,9.69,42.14,9.69,79.78s30.51,68.16,68.16,68.16,68.16-30.52,68.16-68.16S115.49,11.61,77.85,11.61Z"></path>
  <path class="cls-1" d="m110.71,35.79c-9.16-6.78-20.51-10.8-32.79-10.8-17.86,0-33.74,8.48-43.82,21.65h.01l22.78,13.78h.01c5.03-8.71,12.3-15.07,21.37-17.26,20.3-4.9,19.14,14.93,8.87,16.34-9.16,1.25-14.7-5.6-14.7-5.6l-6.76,6.07s12.6,17.28,35,14c21.46-3.12,23.2-28.49,10.03-38.16v-.02Z"></path>
  <path class="cls-1" d="m77.1,134.77c-29.98-.57-54.11-25.05-54.11-55.16,0-11.09,3.27-21.41,8.91-30.06l-.03.02,23.3,14.03v.03c-6.07,12.84-5.83,28.01-4.19,39.21,1.63,11.2,9.09,16.56,13.05,14.23,3.97-2.33,4.67-9.8,4.21-22.87-.46-13.06-3.06-24.58-3.06-24.58h-.01l11.93,7.18v57.99h0Z"></path>
  <path class="cls-1" d="m121.47,46.43c7,9.25,11.17,20.79,11.17,33.29,0,21.71-12.56,40.51-30.8,49.51h-.02l-9.77-10.5v-.02,14.24h0c-3.73,1.02-7.65,1.66-11.66,1.86h0s0-55.53,0-55.53l9.53,5.74c4.43,27.3,12.17,29.36,12.17,29.36,13.31-16.34,6.78-39.63,7-39.67,5.84-1.17,18.18-12.38,12.38-28.24v-.03Z"></path>
  <path class="cls-1" d="m176.26,43.43v8.8c0,2-.08,3.99-1.64,5.51-1.3,1.28-3.35,1.74-5.18,1.74s-3.87-.46-5.18-1.74c-1.55-1.51-1.63-3.5-1.63-5.51v-8.8h4.06v8.23c0,2.03.14,4.25,2.75,4.25s2.76-2.22,2.76-4.25v-8.23h4.06Z"></path>
  <polygon class="cls-1" points="181.94 43.43 186 43.43 193.44 52.99 193.49 52.99 193.49 43.43 197.55 43.43 197.55 59.07 193.49 59.07 186.05 49.49 186 49.49 186 59.07 181.94 59.07 181.94 43.43"></polygon>
  <rect class="cls-2" x="203.31" y="43.43" width="4.08" height="15.63"></rect>
  <polygon class="cls-1" points="219.7 52.93 223.49 43.43 227.91 43.43 221.23 59.07 218.08 59.07 211.51 43.43 215.92 43.43 219.7 52.93"></polygon>
  <polygon class="cls-1" points="236.1 46.88 236.1 49.49 240.68 49.49 240.68 52.93 236.1 52.93 236.1 55.63 240.93 55.63 240.93 59.07 232.04 59.07 232.04 43.43 240.93 43.43 240.93 46.88 236.1 46.88"></polygon>
  <path class="cls-1" d="m250.61,50.45h.4c1.33,0,2.83-.26,2.83-1.95s-1.5-1.95-2.83-1.95h-.4v3.9Zm8.94,8.62h-5.06l-3.84-6.01h-.05v6.01h-4.05v-15.63h6.07c3.08,0,5.42,1.47,5.42,4.82,0,2.15-1.2,4.02-3.42,4.41l4.92,6.41Z"></path>
  <path class="cls-1" d="m272.34,47.46c-.76-.63-1.71-1.04-2.69-1.04-.75,0-1.75.43-1.75,1.3s1.1,1.27,1.8,1.5l1.04.3c2.17.65,3.85,1.74,3.85,4.28,0,1.55-.37,3.15-1.6,4.21-1.24,1.03-2.87,1.47-4.45,1.47-1.97,0-3.89-.67-5.49-1.79l1.74-3.27c1.02.89,2.21,1.62,3.6,1.62.95,0,1.97-.48,1.97-1.58s-1.59-1.53-2.47-1.78c-2.54-.72-4.22-1.39-4.22-4.41s2.26-5.25,5.39-5.25c1.57,0,3.51.5,4.89,1.29l-1.62,3.16Z"></path>
  <rect class="cls-2" x="279.64" y="43.43" width="4.06" height="15.63"></rect>
  <path class="cls-1" d="m293.53,55.63h.91c2.43,0,4.5-1.33,4.5-4.38,0-2.8-1.84-4.37-4.46-4.37h-.95v8.75Zm-4.07-12.2h5.77c4.35,0,7.94,3.42,7.94,7.82s-3.6,7.82-7.94,7.82h-5.77v-15.63Z"></path>
  <path class="cls-1" d="m314.99,48.26h-.03l-1.69,4.98h3.39l-1.66-4.98Zm-2.84,8.08l-1.07,2.72h-4.31l6.01-15.63h4.43l5.89,15.63h-4.33l-1.01-2.72h-5.61Z"></path>
  <path class="cls-1" d="m331.53,55.63h.91c2.43,0,4.51-1.33,4.51-4.38,0-2.8-1.85-4.37-4.45-4.37h-.96v8.75Zm-4.07-12.2h5.77c4.36,0,7.95,3.42,7.95,7.82s-3.61,7.82-7.95,7.82h-5.77v-15.63Z"></path>
  <path class="cls-1" d="m360.47,50.61h.67c1.47,0,2.92,0,2.92-1.91s-1.35-1.99-2.92-1.99h-.67v3.9Zm-4.07-7.18h6.21c3.36,0,5.68,1.56,5.68,5.15s-1.99,5.3-5.54,5.3h-2.29v5.18h-4.07v-15.63Z"></path>
  <polygon class="cls-1" points="377.28 46.88 377.28 49.49 381.86 49.49 381.86 52.93 377.28 52.93 377.28 55.63 382.11 55.63 382.11 59.07 373.22 59.07 373.22 43.43 382.11 43.43 382.11 46.88 377.28 46.88"></polygon>
  <path class="cls-1" d="m391.79,55.63h.91c2.42,0,4.5-1.33,4.5-4.38,0-2.8-1.85-4.37-4.46-4.37h-.96v8.75Zm-4.06-12.2h5.76c4.35,0,7.94,3.42,7.94,7.82s-3.61,7.82-7.94,7.82h-5.76v-15.63Z"></path>
  <path class="cls-1" d="m413.25,48.26h-.04l-1.67,4.98h3.38l-1.66-4.98Zm-2.84,8.08l-1.08,2.72h-4.32l6.02-15.63h4.43l5.89,15.63h-4.33l-1.03-2.72h-5.59Z"></path>
  <path class="cls-1" d="m441.32,50.34c-.04,2.28-.2,4.23-1.59,6.17-1.54,2.14-3.84,3.07-6.45,3.07-4.92,0-8.34-3.33-8.34-8.25s3.44-8.42,8.48-8.42c3.2,0,5.7,1.45,7.04,4.38l-3.86,1.62c-.56-1.49-1.74-2.49-3.38-2.49-2.67,0-4.05,2.55-4.05,4.93s1.45,4.9,4.12,4.9c1.76,0,3.11-.92,3.28-2.72h-3.32v-3.19h8.07Z"></path>
  <path class="cls-1" d="m449.74,50.98c0,2.7,1.99,4.67,4.42,4.67s4.41-1.97,4.41-4.67c0-2.15-1.99-4.12-4.41-4.12s-4.42,1.97-4.42,4.12m13.06-.02c0,5.06-3.63,8.62-8.64,8.62s-8.65-3.57-8.65-8.62c0-4.73,4.14-8.05,8.65-8.05s8.64,3.32,8.64,8.05Z"></path>
  <path class="cls-1" d="m483.38,50.34c-.04,2.28-.2,4.23-1.59,6.17-1.54,2.14-3.83,3.07-6.45,3.07-4.91,0-8.34-3.33-8.34-8.25s3.45-8.42,8.48-8.42c3.22,0,5.7,1.45,7.05,4.38l-3.86,1.62c-.56-1.49-1.75-2.49-3.39-2.49-2.67,0-4.06,2.55-4.06,4.93s1.45,4.9,4.12,4.9c1.76,0,3.12-.92,3.28-2.72h-3.33v-3.19h8.07Z"></path>
  <rect class="cls-2" x="488.37" y="43.43" width="4.06" height="15.63"></rect>
  <path class="cls-1" d="m509.35,48.68c-.82-1.12-2.15-1.72-3.55-1.72-2.5,0-4.17,1.9-4.17,4.33s1.71,4.25,4.23,4.25c1.34,0,2.65-.64,3.49-1.66v4.87c-1.34.42-2.3.72-3.56.72-2.19,0-4.26-.83-5.88-2.31-1.72-1.55-2.51-3.58-2.51-5.91,0-2.13.81-4.19,2.31-5.72,1.54-1.57,3.75-2.53,5.95-2.53,1.3,0,2.51.29,3.7.79v4.87Z"></path>
  <path class="cls-1" d="m521.8,48.26h-.03l-1.68,4.98h3.38l-1.66-4.98Zm-2.83,8.08l-1.07,2.72h-4.31l6.01-15.63h4.42l5.9,15.63h-4.34l-1.01-2.72h-5.6Z"></path>
  <polygon class="cls-1" points="162.7 74.41 166.76 74.41 174.21 83.97 174.25 83.97 174.25 74.41 178.31 74.41 178.31 90.04 174.25 90.04 166.81 80.46 166.76 80.46 166.76 90.04 162.7 90.04 162.7 74.41"></polygon>
  <path class="cls-1" d="m190.89,79.24h-.03l-1.68,4.97h3.37l-1.66-4.97Zm-2.83,8.08l-1.08,2.72h-4.31l6.01-15.63h4.44l5.89,15.63h-4.34l-1.02-2.72h-5.59Z"></path>
  <path class="cls-1" d="m214.55,79.65c-.83-1.12-2.17-1.71-3.56-1.71-2.49,0-4.17,1.91-4.17,4.33s1.7,4.25,4.23,4.25c1.33,0,2.66-.64,3.5-1.66v4.87c-1.34.41-2.33.73-3.58.73-2.18,0-4.25-.83-5.87-2.3-1.72-1.56-2.51-3.59-2.51-5.91,0-2.15.81-4.19,2.3-5.73,1.53-1.57,3.76-2.52,5.95-2.52,1.31,0,2.51.29,3.71.79v4.86Z"></path>
  <rect class="cls-2" x="220.18" y="74.41" width="4.07" height="15.63"></rect>
  <path class="cls-1" d="m233.44,81.95c0,2.7,1.99,4.67,4.42,4.67s4.41-1.97,4.41-4.67c0-2.15-1.99-4.12-4.41-4.12s-4.42,1.97-4.42,4.12m13.06-.02c0,5.06-3.62,8.63-8.64,8.63s-8.65-3.57-8.65-8.63c0-4.73,4.14-8.04,8.65-8.04s8.64,3.31,8.64,8.04Z"></path>
  <polygon class="cls-1" points="251.5 74.41 255.57 74.41 263.01 83.97 263.05 83.97 263.05 74.41 267.12 74.41 267.12 90.04 263.05 90.04 255.61 80.46 255.57 80.46 255.57 90.04 251.5 90.04 251.5 74.41"></polygon>
  <path class="cls-1" d="m279.71,79.24h-.04l-1.69,4.97h3.39l-1.66-4.97Zm-2.85,8.08l-1.07,2.72h-4.3l6-15.63h4.44l5.89,15.63h-4.34l-1.01-2.72h-5.6Z"></path>
  <polygon class="cls-1" points="296.25 86.6 301.11 86.6 301.11 90.04 292.18 90.04 292.18 74.41 296.25 74.41 296.25 86.6"></polygon>
  <path class="cls-4" d="m229.31,114.8c-.23,0-.54.18-.86.49-.45.39-1.25,1.33-1.8,2.24-.61,1.02-.87,1.81-.87,2.14,0,.18.08.28.22.28.3,0,1.26-.63,2.07-1.51.81-.89,1.3-1.83,1.51-2.57.17-.61.04-1.08-.27-1.08Z"></path>
  <path class="cls-4" d="m266.67,115.1c-.32,0-.57.14-1.05.66-.85.91-1.64,2.64-1.67,3.64,0,.16.06.3.19.3.24,0,.88-.55,1.54-1.22.75-.8,1.45-2.14,1.67-2.85-.12-.36-.36-.53-.67-.53Z"></path>
  <path class="cls-4" d="m422.25,115.1c-.33,0-.58.14-1.07.66-.84.91-1.63,2.64-1.67,3.64,0,.16.07.3.19.3.24,0,.89-.55,1.55-1.22.75-.8,1.46-2.14,1.67-2.85-.12-.36-.37-.53-.67-.53Z"></path>
  <path class="cls-4" d="m280.14,114.8c-.23,0-.53.18-.87.49-.44.39-1.26,1.33-1.79,2.24-.6,1.02-.88,1.81-.88,2.14,0,.18.09.28.22.28.29,0,1.26-.63,2.07-1.51.8-.89,1.29-1.83,1.51-2.57.17-.61.03-1.08-.27-1.08Z"></path>
  <path class="cls-4" d="m384.87,114.8c-.21,0-.53.18-.86.49-.44.39-1.25,1.33-1.78,2.24-.61,1.02-.88,1.81-.88,2.14,0,.18.09.28.21.28.31,0,1.28-.63,2.07-1.51.8-.89,1.3-1.83,1.53-2.57.17-.61.02-1.08-.29-1.08Z"></path>
  <path class="cls-4" d="m372.69,114.8c-.22,0-.54.18-.91.61-.56.59-.93,1.39-1.1,1.93.78-.27,1.24-.53,1.73-1.02.38-.38.56-.9.56-1.13,0-.2-.09-.38-.29-.38Z"></path>
  <path class="cls-4" d="m292.64,114.8c-.28,0-.6.17-.99.67-.71.92-1.5,2.72-1.5,3.85,0,.46.18.79.54.79s.7-.24,1.15-.89c.55-.8,1.28-2.61,1.28-3.6,0-.41-.06-.82-.48-.82Z"></path>
  <path class="cls-4" d="m339.43,114.8c-.23,0-.53.18-.86.49-.45.39-1.27,1.33-1.79,2.24-.62,1.02-.88,1.81-.88,2.14,0,.18.09.28.21.28.3,0,1.27-.63,2.07-1.51.8-.89,1.3-1.83,1.52-2.57.17-.61.04-1.08-.27-1.08Z"></path>
  <path class="cls-3" d="m471.43,114.8c-.21,0-.52.18-.91.61-.57.59-.92,1.39-1.09,1.93.77-.27,1.24-.53,1.74-1.02.37-.38.54-.9.54-1.13,0-.2-.09-.38-.29-.38Z"></path>
  <path class="cls-4" d="m351.82,114.8c-.21,0-.54.18-.92.61-.55.59-.92,1.39-1.08,1.93.76-.27,1.24-.53,1.73-1.02.37-.38.55-.9.55-1.13,0-.2-.1-.38-.29-.38Z"></path>
  <path class="cls-4" d="m435.71,114.8c-.22,0-.54.18-.86.49-.45.39-1.27,1.33-1.8,2.24-.6,1.02-.88,1.81-.88,2.14,0,.18.1.28.22.28.3,0,1.27-.63,2.08-1.51.8-.89,1.3-1.83,1.51-2.57.17-.61.03-1.08-.27-1.08Z"></path>
  <path class="cls-4" d="m162.57,105.38v20.48h367.64v-20.48H162.57Zm56.44,7.21c-.1.13-.43.15-.49,0,.06-.65.06-1.08-.28-1.29-.25-.16-.7-.27-1.44-.27h-1c-.45,0-.51.06-.67.55l-.9,2.89c-.12.43-.12.45.29.45h.83c1.11,0,1.37-.11,1.72-.81l.21-.41c.13-.13.45-.09.49.03-.15.38-.33.99-.55,1.55-.17.57-.32,1.14-.41,1.54-.11.1-.43.1-.48,0l.02-.4c.07-.75-.24-.82-1.23-.82h-.78c-.41,0-.47.03-.59.43l-.62,1.94c-.23.78-.36,1.27-.22,1.54.12.23.36.35,1.52.35,1.5,0,2.07-.09,3.17-1.65.13-.08.4-.06.47.09-.2.61-.74,1.79-1.1,2.19-.48,0-1.09-.03-1.7-.03-.63-.02-1.28-.02-1.89-.02h-1.83c-.66,0-1.27.02-2.06.04-.15-.07-.13-.34.03-.43l.52-.06c.72-.07.86-.26,1.34-1.72l1.76-5.64c.41-1.32.4-1.56-.32-1.73l-.36-.1c-.13-.09-.06-.33.09-.41.32.02.66.04,1,.04.35.01.7.01.97.01h3.09c.96,0,1.76,0,2.09-.05-.12.26-.48,1.4-.68,2.2Zm13.32-.53c-.6,1.61-2.07,6.05-2.21,6.55-.11.36-.18.59-.21.74-.04.13,0,.26.12.26.18,0,1.02-.58,1.51-1.16.15,0,.24.09.24.27-.39.68-1.69,1.93-2.85,1.93-.37,0-.54-.27-.54-.49,0-.27.11-.58.26-1.03l.51-1.36h-.05c-.88,1.31-2.11,2.88-3.65,2.88-.67,0-1.04-.49-1.04-1.25.02-1.15.79-2.79,1.98-3.84,1.01-.88,1.99-1.31,2.8-1.31.31,0,.64.19.79.43l1.05-3.08c.25-.69.26-.9,0-1.06l-.36-.24c-.06-.09-.03-.21.06-.28.37-.15,1.57-.39,2.28-.42.06.03.12.09.12.12-.27.76-.43,1.3-.84,2.34Zm9.9,8.6c-.34,0-.6-.31-.45-.67l.95-2.44h-.03c-.96,1.28-2.73,3.11-3.73,3.11-.43,0-.73-.36-.73-.73,0-.21.07-.47.18-.74l1.35-3.44c.1-.24.08-.39-.05-.39-.29,0-.98.59-1.4,1.01-.15-.02-.26-.12-.24-.3.48-.7,1.78-1.81,2.87-1.81.31,0,.58.28.58.55,0,.07-.03.24-.09.41l-1.56,3.9c-.1.27-.04.42.11.42.18,0,.57-.31,1.11-.82,1.25-1.21,2.26-3.17,2.85-4.39.12-.05.27-.07.45-.07.33,0,.7.16.76.31-.38.98-1.16,2.97-1.78,4.62-.09.25-.09.41.07.41.27,0,1.06-.67,1.45-1.11.16,0,.28.06.28.28-.42.73-1.88,1.89-2.94,1.89Zm13.7-4.53c-.25,0-.44-.15-.45-.42-.04-.33.01-.82-.39-.82-.29,0-.68.3-1.11.96-.46.74-.96,1.86-.96,2.98,0,.68.26.91.63.91.46,0,.99-.28,1.62-.92.17,0,.3.12.27.29-.57.75-1.67,1.57-2.8,1.57-.82,0-1.34-.58-1.34-1.67,0-1.01.62-2.5,1.71-3.57.81-.79,1.61-1.16,2.42-1.16s1.31.43,1.3,1.04c0,.59-.56.83-.92.83Zm11.48,3.53c.23,0,.85-.35,1.52-.99.12,0,.25.1.25.29-.67.85-1.86,1.7-2.82,1.7-.37,0-.5-.31-.5-.49,0-.15.04-.32.15-.61l.55-1.44h-.05c-1.06,1.44-2.58,2.54-3.46,2.54-.47,0-.81-.43-.81-.92,0-.59.6-2.12,1.76-3.44.69-.76,1.39-1.23,1.9-1.49.46-.25.82-.34,1.18-.34.12,0,.25.06.34.11.09.04.24.17.33.3l.39-.86c.06-.03.18-.06.3-.06.28,0,.71.09.84.37-.42.98-1.39,3.48-1.94,5.05-.09.2-.02.28.07.28Zm15.75-7.59c-.61,1.61-2.06,6.05-2.21,6.55-.11.36-.19.59-.21.74-.03.13,0,.26.12.26.19,0,1.03-.58,1.51-1.16.15,0,.25.09.25.27-.4.68-1.7,1.93-2.85,1.93-.38,0-.54-.27-.54-.49,0-.27.1-.58.25-1.03l.5-1.36h-.04c-.89,1.31-2.11,2.88-3.64,2.88-.67,0-1.05-.49-1.05-1.25.04-1.15.79-2.79,1.98-3.84,1.02-.88,2-1.31,2.81-1.31.31,0,.63.19.79.43l1.06-3.08c.26-.69.26-.9.01-1.06l-.36-.24c-.06-.09-.03-.21.06-.28.36-.15,1.58-.39,2.28-.42.05.03.12.09.12.12-.28.76-.45,1.3-.84,2.34Zm9.89,7.55c-.88.86-1.73,1.04-2.4,1.04-1.27,0-1.91-.87-1.88-1.99.03-1.11.65-2.54,1.58-3.39.87-.82,1.63-1.02,2.31-1.02,1.35,0,1.9.93,1.87,2.07,0,.94-.47,2.31-1.49,3.29Zm12.89-3.29c-.19,0-.24-.16-.3-.44-.05-.3-.15-.46-.3-.46-.18,0-.53.34-1.02,1.17-.56.91-1.21,2.37-1.82,3.82-.08.17-.29.24-.53.24-.29,0-.83-.09-.7-.52.34-.99,1.1-3.1,1.53-4.47.08-.25.06-.4-.09-.4-.33,0-.82.43-1.19.85-.14,0-.27-.12-.24-.3.4-.69,1.16-1.57,2.11-1.57.8,0,.68.88.43,1.58l-.52,1.57h.09c.45-.83.96-1.7,1.34-2.17.49-.61.9-.98,1.35-.98.49,0,.7.43.7.85,0,.47-.35,1.22-.82,1.22Zm11.19,3.33c.24,0,.86-.35,1.53-.99.12,0,.24.1.24.29-.67.85-1.85,1.7-2.82,1.7-.37,0-.49-.31-.49-.49,0-.15.04-.32.14-.61l.54-1.44h-.05c-1.05,1.44-2.57,2.54-3.44,2.54-.5,0-.83-.43-.83-.92,0-.59.61-2.12,1.79-3.44.68-.76,1.37-1.23,1.89-1.49.45-.25.82-.34,1.19-.34.11,0,.23.06.34.11.08.04.23.17.31.3l.4-.86c.06-.03.19-.06.31-.06.28,0,.71.09.85.37-.43.98-1.39,3.48-1.97,5.05-.07.2-.01.28.07.28Zm25.32-7.59c-.6,1.61-2.05,6.05-2.21,6.55-.1.36-.18.59-.21.74-.02.13,0,.26.12.26.18,0,1.04-.58,1.52-1.16.14,0,.24.09.24.27-.39.68-1.7,1.93-2.84,1.93-.37,0-.55-.27-.55-.49,0-.27.11-.58.25-1.03l.51-1.36h-.04c-.9,1.31-2.13,2.88-3.66,2.88-.66,0-1.04-.49-1.04-1.25.03-1.15.78-2.79,1.99-3.84,1.01-.88,1.98-1.31,2.79-1.31.31,0,.64.19.79.43l1.07-3.08c.22-.69.26-.9,0-1.06l-.36-.24c-.06-.09-.04-.21.05-.28.36-.15,1.58-.39,2.28-.42.05.03.12.09.12.12-.26.76-.43,1.3-.84,2.34Zm7.26,5.8c-.07.21-.14.56-.14.99,0,.56.24.86.66.86.55,0,1.09-.31,1.8-.95.16,0,.28.15.24.3-.81,1.14-1.89,1.59-2.88,1.59s-1.43-.82-1.43-1.65c0-1.14.73-2.83,2.16-3.93.83-.62,1.55-.82,2.12-.82.73,0,1.21.55,1.21,1.05,0,1.37-2.06,2.11-3.74,2.56Zm20.87,0c-.07.21-.13.56-.13.99,0,.56.25.86.68.86.53,0,1.08-.31,1.78-.95.16,0,.26.15.24.3-.82,1.14-1.88,1.59-2.88,1.59s-1.43-.82-1.43-1.65c0-1.14.71-2.83,2.16-3.93.83-.62,1.54-.82,2.12-.82.72,0,1.21.55,1.21,1.05,0,1.37-2.08,2.11-3.75,2.56Zm17.32-5.8c-.6,1.61-2.06,6.05-2.21,6.55-.11.36-.18.59-.21.74-.02.13,0,.26.12.26.19,0,1.04-.58,1.52-1.16.14,0,.24.09.24.27-.4.68-1.7,1.93-2.85,1.93-.37,0-.55-.27-.55-.49,0-.27.11-.58.26-1.03l.51-1.36h-.04c-.89,1.31-2.12,2.88-3.65,2.88-.67,0-1.04-.49-1.04-1.25.03-1.15.79-2.79,1.98-3.84,1.02-.88,1.98-1.31,2.81-1.31.31,0,.63.19.79.43l1.07-3.08c.23-.69.25-.9,0-1.06l-.37-.24c-.05-.09-.04-.21.06-.28.36-.15,1.58-.39,2.27-.42.06.03.12.09.12.12-.26.76-.44,1.3-.83,2.34Zm9.9,8.6c-.34,0-.59-.31-.46-.67l.94-2.44h-.02c-.96,1.28-2.74,3.11-3.74,3.11-.41,0-.73-.36-.73-.73,0-.21.07-.47.18-.74l1.35-3.44c.09-.24.08-.39-.05-.39-.3,0-.97.59-1.4,1.01-.14-.02-.26-.12-.24-.3.48-.7,1.77-1.81,2.88-1.81.3,0,.59.28.59.55,0,.07-.04.24-.1.41l-1.57,3.9c-.1.27-.04.42.11.42.18,0,.57-.31,1.1-.82,1.26-1.21,2.26-3.17,2.85-4.39.12-.05.27-.07.45-.07.34,0,.69.16.76.31-.37.98-1.16,2.97-1.79,4.62-.07.25-.07.41.08.41.27,0,1.06-.67,1.45-1.11.14,0,.27.06.27.28-.43.73-1.88,1.89-2.94,1.89Zm13.7-4.53c-.25,0-.44-.15-.46-.42-.02-.33.02-.82-.38-.82-.3,0-.69.3-1.12.96-.47.74-.95,1.86-.95,2.98,0,.68.26.91.62.91.46,0,1-.28,1.62-.92.19,0,.3.12.27.29-.56.75-1.67,1.57-2.79,1.57-.8,0-1.33-.58-1.33-1.67,0-1.01.61-2.5,1.72-3.57.8-.79,1.6-1.16,2.4-1.16s1.31.43,1.3,1.04c0,.59-.56.83-.91.83Zm11.47,3.53c.23,0,.85-.35,1.52-.99.12,0,.25.1.25.29-.67.85-1.85,1.7-2.82,1.7-.38,0-.5-.31-.5-.49,0-.15.04-.32.16-.61l.53-1.44h-.04c-1.06,1.44-2.58,2.54-3.46,2.54-.49,0-.82-.43-.82-.92,0-.59.61-2.12,1.79-3.44.67-.76,1.37-1.23,1.89-1.49.46-.25.81-.34,1.17-.34.13,0,.25.06.36.11.08.04.22.17.31.3l.39-.86c.06-.03.18-.06.3-.06.29,0,.72.09.86.37-.43.98-1.4,3.48-1.95,5.05-.09.2-.02.28.06.28Zm15.75-7.59c-.6,1.61-2.05,6.05-2.21,6.55-.11.36-.18.59-.21.74-.04.13,0,.26.13.26.18,0,1.02-.58,1.51-1.16.15,0,.24.09.24.27-.4.68-1.68,1.93-2.85,1.93-.36,0-.53-.27-.53-.49,0-.27.09-.58.25-1.03l.51-1.36h-.04c-.89,1.31-2.11,2.88-3.64,2.88-.66,0-1.05-.49-1.05-1.25.04-1.15.79-2.79,1.99-3.84,1.02-.88,1.99-1.31,2.8-1.31.3,0,.64.19.79.43l1.06-3.08c.24-.69.26-.9.02-1.06l-.37-.24c-.06-.09-.03-.21.07-.28.35-.15,1.56-.39,2.27-.42.06.03.12.09.12.12-.28.76-.43,1.3-.84,2.34Zm9.88,7.55c-.87.86-1.71,1.04-2.39,1.04-1.27,0-1.91-.87-1.89-1.99.05-1.11.66-2.54,1.61-3.39.86-.82,1.63-1.02,2.3-1.02,1.35,0,1.9.93,1.85,2.07,0,.94-.46,2.31-1.48,3.29Zm12.9-3.29c-.18,0-.23-.16-.3-.44-.06-.3-.15-.46-.3-.46-.19,0-.53.34-1.03,1.17-.56.91-1.21,2.37-1.82,3.82-.08.17-.28.24-.52.24-.3,0-.82-.09-.69-.52.32-.99,1.08-3.1,1.51-4.47.07-.25.06-.4-.09-.4-.34,0-.82.43-1.19.85-.15,0-.26-.12-.23-.3.39-.69,1.14-1.57,2.09-1.57.81,0,.69.88.43,1.58l-.53,1.57h.09c.46-.83.97-1.7,1.35-2.17.5-.61.9-.98,1.35-.98.48,0,.71.43.71.85,0,.47-.36,1.22-.83,1.22Zm7.82,1.55c-.08.21-.14.56-.14.99,0,.56.24.86.66.86.56,0,1.09-.31,1.79-.95.15,0,.28.15.24.3-.81,1.14-1.88,1.59-2.87,1.59s-1.43-.82-1.43-1.65c0-1.14.71-2.83,2.16-3.93.83-.62,1.54-.82,2.12-.82.73,0,1.22.55,1.22,1.05,0,1.37-2.06,2.11-3.74,2.56Zm13.26-1.93c-.14,0-.25-.06-.33-.17-.43-.49-.67-.66-1.06-.66-.33,0-.52.26-.52.47,0,.5.5.94.78,1.3.43.59.68,1.02.64,1.61,0,.52-.27,1.1-.84,1.56-.45.38-1.06.61-1.7.61s-1.21-.45-1.21-.99c0-.33.24-.73.57-.73.13,0,.23.1.34.21.4.43.72.69,1.15.69.33,0,.62-.23.62-.55,0-.5-.48-1.03-.76-1.4-.43-.55-.64-1.06-.64-1.45,0-.62.33-1.15.88-1.61.43-.37.98-.58,1.36-.58.7,0,1.21.52,1.21,1.05,0,.41-.32.63-.47.63Z"></path>
  <path class="cls-4" d="m316.41,115.1c-.34,0-.58.14-1.07.66-.85.91-1.63,2.64-1.66,3.64,0,.16.05.3.17.3.25,0,.88-.55,1.56-1.22.75-.8,1.45-2.14,1.65-2.85-.11-.36-.36-.53-.66-.53Z"></path>
  <path class="cls-4" d="m448.22,114.8c-.29,0-.59.17-.98.67-.71.92-1.51,2.72-1.51,3.85,0,.46.2.79.55.79s.7-.24,1.14-.89c.55-.8,1.28-2.61,1.28-3.6,0-.41-.06-.82-.48-.82Z"></path>
</svg>
